<?xml version="1.0" standalone="no"?>
<!DOCTYPE svg PUBLIC "-//W3C//DTD SVG 20010904//EN"
 "http://www.w3.org/TR/2001/REC-SVG-20010904/DTD/svg10.dtd">
<svg version="1.0" xmlns="http://www.w3.org/2000/svg"
 width="1536.000000pt" height="1024.000000pt" viewBox="0 0 1536.000000 1024.000000"
 preserveAspectRatio="xMidYMid meet">

<g transform="translate(0.000000,1024.000000) scale(0.100000,-0.100000)"
fill="#000000" stroke="none">
<path d="M0 5120 l0 -5120 7680 0 7680 0 0 5120 0 5120 -7680 0 -7680 0 0
-5120z m4760 1830 c112 -14 259 -53 343 -92 37 -17 66 -33 64 -35 -2 -2 -34
10 -71 27 -37 16 -94 37 -126 45 -33 9 -67 18 -76 22 -11 4 -15 3 -10 -5 3 -6
-2 -16 -13 -21 -21 -12 -71 -11 -71 0 0 4 -11 2 -25 -4 -20 -10 -25 -19 -25
-49 0 -35 -2 -38 -30 -38 -28 0 -30 -2 -30 -40 0 -36 -2 -40 -25 -40 -22 0
-25 -4 -25 -40 l0 -40 -45 0 -45 0 0 -40 c0 -33 -3 -40 -20 -40 -17 0 -20 -7
-20 -40 0 -29 -4 -40 -15 -40 -8 0 -15 9 -15 20 0 11 -4 20 -9 20 -19 0 -41
-45 -41 -81 0 -24 -5 -39 -15 -43 -11 -4 -15 1 -15 19 0 14 -4 25 -8 25 -20 0
-29 -25 -24 -72 l5 -51 -32 5 c-31 4 -31 4 -31 -39 0 -36 -3 -43 -20 -43 -17
0 -20 -7 -20 -40 0 -43 0 -43 -67 -40 l-43 2 0 -81 0 -81 -40 0 -40 0 0 -40 0
-40 -40 0 -40 0 0 -40 0 -40 -45 0 -45 0 0 -40 c0 -39 -1 -40 -35 -40 l-35 0
0 -80 0 -80 -45 0 -45 0 0 -40 c0 -33 -3 -40 -20 -40 -17 0 -20 -7 -20 -40 l0
-40 -40 0 -40 0 0 -40 c0 -29 -4 -40 -15 -40 -11 0 -16 12 -17 43 l-1 42 -4
-42 c-3 -35 -8 -43 -24 -43 -16 0 -19 -7 -19 -40 l0 -40 -55 0 c-46 0 -55 -3
-55 -18 0 -9 -9 -23 -20 -30 -11 -7 -20 -17 -20 -22 0 -6 9 -10 20 -10 27 0
26 -2 -17 -45 -26 -26 -38 -33 -44 -23 -4 7 -12 9 -16 4 -4 -5 -2 -11 5 -13 7
-3 12 -22 12 -44 0 -39 0 -39 -39 -39 -22 0 -42 5 -44 13 -9 21 -27 -15 -27
-55 0 -34 -3 -38 -25 -38 -22 0 -25 -4 -25 -40 l0 -40 -45 0 -45 0 0 -40 c0
-33 -3 -40 -20 -40 -14 0 -20 -7 -20 -24 0 -39 -11 -56 -35 -56 -19 0 -24 -7
-30 -40 -6 -34 -11 -40 -31 -40 -21 0 -24 -5 -24 -35 0 -24 -9 -45 -27 -65
-33 -37 -41 -37 -46 -2 -3 19 -4 14 -6 -15 l-1 -43 -40 0 c-37 0 -40 -2 -40
-27 0 -16 -3 -39 -7 -52 -4 -17 -3 -22 5 -17 8 5 10 1 5 -10 -6 -15 -7 -15
-15 1 -5 9 -7 23 -4 31 3 8 1 14 -3 14 -15 0 -19 -23 -8 -53 5 -15 7 -34 4
-41 -3 -8 2 -20 10 -28 15 -11 16 -11 9 7 -4 11 -4 16 1 12 4 -5 8 -22 9 -39
1 -16 -1 -26 -5 -21 -66 77 -136 208 -169 314 -35 112 -47 255 -33 375 15 130
40 215 97 324 81 154 198 276 349 361 70 39 223 92 302 104 41 6 42 7 48 53
39 332 110 508 292 734 248 307 679 477 1083 428z m480 -166 c0 -2 -9 0 -20 6
-11 6 -20 13 -20 16 0 2 9 0 20 -6 11 -6 20 -13 20 -16z m-601 -728 c-2 -2
-24 -6 -48 -9 -29 -4 -40 -2 -30 4 13 8 88 14 78 5z m36 -14 c-3 -3 -11 0 -18
7 -9 10 -8 11 6 5 10 -3 15 -9 12 -12z m-153 -22 c-36 -34 -55 -81 -62 -155
l-7 -70 -2 63 c-1 46 5 74 20 105 25 48 48 77 62 77 6 0 1 -9 -11 -20z m193
10 c3 -6 -1 -7 -9 -4 -18 7 -21 14 -7 14 6 0 13 -4 16 -10z m53 -75 c-3 -3 -9
2 -12 12 -6 14 -5 15 5 6 7 -7 10 -15 7 -18z m9 -97 c-2 -13 -4 -3 -4 22 0 25
2 35 4 23 2 -13 2 -33 0 -45z m3017 -316 c48 -19 176 -107 176 -120 -1 -4 -15
-23 -32 -42 -17 -20 -25 -25 -19 -13 6 12 16 25 21 28 28 17 7 45 -77 102 -65
44 -208 72 -278 54 -25 -6 -66 -16 -92 -23 -54 -13 -95 -36 -88 -49 3 -4 -4
-13 -16 -19 -15 -8 -19 -9 -15 -1 10 16 -10 13 -23 -3 -8 -10 -9 -16 -1 -21 5
-3 10 -11 10 -17 0 -6 -3 -8 -7 -5 -3 4 -12 2 -20 -4 -8 -8 -13 -8 -13 -1 0 6
6 12 13 15 6 2 10 7 7 10 -9 10 -31 -9 -34 -29 -2 -10 -8 -18 -14 -17 -5 1 -9
-5 -8 -15 0 -9 -5 -17 -13 -17 -7 0 -29 -31 -49 -69 -26 -51 -38 -92 -47 -160
-7 -50 -13 -75 -14 -56 -3 103 46 243 115 327 68 82 179 148 284 167 52 10
186 -3 234 -22z m394 20 c9 -3 11 -56 10 -226 l-3 -221 -2 218 -3 217 -60 0
-60 0 -3 -297 -2 -298 -3 302 c-1 233 1 303 11 307 14 6 96 5 115 -2z m-549
-16 c-2 -2 -17 -6 -34 -10 -22 -5 -26 -4 -15 4 14 9 59 15 49 6z m-86 -23 c-7
-2 -19 -2 -25 0 -7 3 -2 5 12 5 14 0 19 -2 13 -5z m-118 -62 c-3 -6 -11 -11
-16 -11 -5 0 -4 6 3 14 14 16 24 13 13 -3z m309 -32 c23 -6 56 -21 72 -34 28
-23 27 -23 -26 3 -47 23 -67 27 -145 27 -72 0 -100 -5 -140 -23 -27 -13 -53
-28 -57 -35 -5 -8 -8 -8 -8 -1 0 16 44 43 94 59 51 16 154 18 210 4z m-419
-59 c-3 -5 -12 -10 -18 -10 -7 0 -6 4 3 10 19 12 23 12 15 0z m79 -42 c-15
-18 -40 -60 -56 -93 -15 -33 -28 -55 -28 -48 0 32 82 173 101 173 6 0 -2 -15
-17 -32z m1279 -25 c-13 -2 -33 -2 -45 0 -13 2 -3 4 22 4 25 0 35 -2 23 -4z
m-84 -7 c-2 -2 -17 -6 -34 -10 -22 -5 -26 -4 -15 4 14 9 59 15 49 6z m-4718
-36 c-65 -10 -98 -33 -127 -89 -29 -58 -16 -115 40 -181 11 -14 5 -10 -15 10
-103 102 -36 272 106 269 l50 -1 -54 -8z m99 -21 c17 -13 18 -17 5 -10 -33 17
-51 31 -40 31 6 0 21 -10 35 -21z m4480 -2 c0 -2 -10 -12 -22 -23 l-23 -19 19
23 c18 21 26 27 26 19z m-4404 -69 l29 -33 -32 29 c-31 28 -38 36 -30 36 2 0
16 -15 33 -32z m-339 -10 c-3 -8 -6 -5 -6 6 -1 11 2 17 5 13 3 -3 4 -12 1 -19z
m3600 -95 c-2 -16 -4 -5 -4 22 0 28 2 40 4 28 2 -13 2 -35 0 -50z m-3196 40
c13 -16 12 -17 -3 -4 -10 7 -18 15 -18 17 0 8 8 3 21 -13z m3062 -128 c4 -27
3 -35 -3 -25 -5 8 -10 28 -10 44 0 39 6 30 13 -19z m-3307 -67 l29 -33 -32 29
c-31 28 -38 36 -30 36 2 0 16 -15 33 -32z m80 -80 l29 -33 -32 29 c-31 28 -38
36 -30 36 2 0 16 -15 33 -32z m65 -65 c13 -16 12 -17 -3 -4 -10 7 -18 15 -18
17 0 8 8 3 21 -13z m80 -80 c13 -16 12 -17 -3 -4 -17 13 -22 21 -14 21 2 0 10
-8 17 -17z m-1264 -450 c-4 -3 3 -17 15 -30 18 -19 19 -23 5 -17 -29 11 -44
54 -19 54 3 0 2 -3 -1 -7z m111 -117 c16 -18 16 -18 -3 -8 -11 7 -33 24 -50
38 l-30 26 33 -18 c18 -11 41 -28 50 -38z m97 -66 c3 -5 -10 -1 -29 11 -20 12
-36 23 -36 25 0 7 58 -25 65 -36z m56 -31 l24 -20 -30 17 c-39 24 -40 24 -28
24 6 0 21 -9 34 -21z m99 -41 c10 -6 7 -7 -10 -2 -14 3 -32 11 -40 16 -10 6
-7 7 10 2 14 -3 32 -11 40 -16z m47 -14 c-3 -3 -12 -4 -19 -1 -8 3 -5 6 6 6
11 1 17 -2 13 -5z"/>
<path d="M4523 6933 c9 -2 23 -2 30 0 6 3 -1 5 -18 5 -16 0 -22 -2 -12 -5z"/>
<path d="M4648 6933 c7 -3 16 -2 19 1 4 3 -2 6 -13 5 -11 0 -14 -3 -6 -6z"/>
<path d="M4711 6931 c-10 -7 -8 -9 10 -9 13 0 39 -4 57 -10 18 -6 30 -7 28 -3
-3 4 9 5 27 2 31 -4 31 -5 7 -12 -20 -6 -21 -7 -5 -8 11 0 27 3 35 9 12 7 10
11 -10 18 -39 14 -134 22 -149 13z"/>
<path d="M4648 6903 c6 -2 18 -2 25 0 6 3 1 5 -13 5 -14 0 -19 -2 -12 -5z"/>
<path d="M4735 6900 c3 -5 8 -10 11 -10 2 0 4 5 4 10 0 6 -5 10 -11 10 -5 0
-7 -4 -4 -10z"/>
<path d="M4648 6883 c6 -2 18 -2 25 0 6 3 1 5 -13 5 -14 0 -19 -2 -12 -5z"/>
<path d="M2661 4514 c0 -11 3 -14 6 -6 3 7 2 16 -1 19 -3 4 -6 -2 -5 -13z"/>
<path d="M2692 4510 c0 -14 2 -19 5 -12 2 6 2 18 0 25 -3 6 -5 1 -5 -13z"/>
<path d="M2681 4463 c11 -34 19 -42 19 -20 0 7 -7 22 -15 33 -13 17 -14 16 -4
-13z"/>
<path d="M2711 4454 c0 -11 3 -14 6 -6 3 7 2 16 -1 19 -3 4 -6 -2 -5 -13z"/>
<path d="M2727 4368 c15 -25 30 -41 32 -36 2 5 -2 15 -8 21 -6 6 -11 20 -11
31 0 10 -3 16 -7 13 -3 -4 -13 -2 -20 5 -8 6 -2 -9 14 -34z"/>
</g>
</svg>
